<svg width="56" height="57" viewBox="0 0 56 57" fill="none" xmlns="http://www.w3.org/2000/svg">
<g clip-path="url(#clip0_2_992)">
<path d="M47.3002 48.39H11.6002C7.20019 48.39 3.7002 44.89 3.7002 40.49V14.49C3.7002 13.39 4.6002 12.39 5.8002 12.39H47.3002C50.2002 12.39 52.6002 14.79 52.6002 17.69V43.19C52.6002 45.99 50.3002 48.39 47.3002 48.39Z" stroke="#2662EB" stroke-width="1.5" stroke-miterlimit="10" stroke-linecap="round" stroke-linejoin="round"/>
<path d="M16.0003 35.09H9.70029C6.40029 35.09 3.80029 37.79 3.80029 40.99V12.99C3.80029 9.68999 6.50029 6.98999 9.80029 6.98999H16.0003V35.09Z" fill="#5FA5FA" stroke="#2662EB" stroke-width="1.5" stroke-miterlimit="10" stroke-linecap="round" stroke-linejoin="round"/>
<path d="M21.1001 17.99H26.4001" stroke="#2662EB" stroke-width="1.5" stroke-miterlimit="10" stroke-linecap="round" stroke-linejoin="round"/>
<path d="M21.1001 22.19H26.4001" stroke="#2662EB" stroke-width="1.5" stroke-miterlimit="10" stroke-linecap="round" stroke-linejoin="round"/>
<path d="M47.5 35.19C46.3 38.69 42.9 41.19 39 41.19C34 41.19 30 37.19 30 32.19C30 30.39 30.5 28.79 31.4 27.39C32.6 25.59 34.4 24.19 36.5 23.59" stroke="#2662EB" stroke-width="1.5" stroke-miterlimit="10" stroke-linecap="round" stroke-linejoin="round"/>
<path d="M48 32.19H39V23.19C43.9 23.19 48 27.19 48 32.19Z" fill="#5FA5FA" stroke="#2662EB" stroke-width="1.5" stroke-miterlimit="10" stroke-linecap="round" stroke-linejoin="round"/>
</g>
<defs>
<clipPath id="clip0_2_992">
<rect width="56" height="56" fill="white" transform="translate(0 0.190002)"/>
</clipPath>
</defs>
</svg>
