<svg width="56" height="57" viewBox="0 0 56 57" fill="none" xmlns="http://www.w3.org/2000/svg">
<g clip-path="url(#clip0_2_974)">
<g clip-path="url(#clip1_2_974)">
<path d="M28.2002 6.98999V47.79" stroke="#2662EB" stroke-width="1.5" stroke-miterlimit="10" stroke-linecap="round" stroke-linejoin="round"/>
<path d="M11.5 10.69L28.6 27.79" stroke="#2662EB" stroke-width="1.5" stroke-miterlimit="10" stroke-linecap="round" stroke-linejoin="round"/>
<path d="M52.7 16.09V30.89C52.7 32.89 51.1 34.49 49.1 34.49H45.8V42.49L39.6 34.49H23.6C21.6 34.49 20 32.89 20 30.89V16.09C20 14.09 21.6 12.49 23.6 12.49H49.1C51.1 12.49 52.7 14.09 52.7 16.09Z" fill="#5FA5FA" stroke="#2662EB" stroke-width="1.5" stroke-miterlimit="10" stroke-linecap="round" stroke-linejoin="round"/>
<path d="M34.0996 28.49H41.2996" stroke="#2662EB" stroke-width="1.5" stroke-miterlimit="10" stroke-linecap="round" stroke-linejoin="round"/>
<path d="M3.7998 23.59V38.39C3.7998 40.39 5.3998 41.99 7.3998 41.99H10.6998V49.99L16.8998 41.99H32.9998C34.9998 41.99 36.5998 40.39 36.5998 38.39V23.59C36.5998 21.59 34.9998 19.99 32.9998 19.99H7.2998C5.2998 19.99 3.7998 21.59 3.7998 23.59Z" fill="white" stroke="#2662EB" stroke-width="1.5" stroke-miterlimit="10" stroke-linecap="round" stroke-linejoin="round"/>
<path d="M20.0996 23.49V31.39C20.0996 33.39 21.6996 34.99 23.6996 34.99H29.4996" fill="white"/>
<path d="M20.0996 23.49V31.39C20.0996 33.39 21.6996 34.99 23.6996 34.99H29.4996" stroke="#2662EB" stroke-width="1.5" stroke-miterlimit="10" stroke-linecap="round" stroke-linejoin="round"/>
<path d="M29.4994 37.59C30.9354 37.59 32.0994 36.4259 32.0994 34.99C32.0994 33.5541 30.9354 32.39 29.4994 32.39C28.0635 32.39 26.8994 33.5541 26.8994 34.99C26.8994 36.4259 28.0635 37.59 29.4994 37.59Z" fill="#5FA5FA" stroke="#2662EB" stroke-width="1.5" stroke-miterlimit="10" stroke-linecap="round" stroke-linejoin="round"/>
<path d="M12.1996 13.89C13.6355 13.89 14.7996 12.7259 14.7996 11.29C14.7996 9.85406 13.6355 8.69 12.1996 8.69C10.7637 8.69 9.59961 9.85406 9.59961 11.29C9.59961 12.7259 10.7637 13.89 12.1996 13.89Z" fill="white" stroke="#2662EB" stroke-width="1.5" stroke-miterlimit="10" stroke-linecap="round" stroke-linejoin="round"/>
<path d="M12.2002 29.89H20.1002" stroke="#2662EB" stroke-width="1.5" stroke-miterlimit="10" stroke-linecap="round" stroke-linejoin="round"/>
<path d="M11.6 32.39C13.0359 32.39 14.2 31.2259 14.2 29.79C14.2 28.3541 13.0359 27.19 11.6 27.19C10.1641 27.19 9 28.3541 9 29.79C9 31.2259 10.1641 32.39 11.6 32.39Z" fill="#5FA5FA" stroke="#2662EB" stroke-width="1.5" stroke-miterlimit="10" stroke-linecap="round" stroke-linejoin="round"/>
</g>
</g>
<defs>
<clipPath id="clip0_2_974">
<rect width="56" height="56" fill="white" transform="translate(0 0.190002)"/>
</clipPath>
<clipPath id="clip1_2_974">
<rect width="56" height="56" fill="white" transform="translate(0 0.190002)"/>
</clipPath>
</defs>
</svg>
