<svg width="56" height="57" viewBox="0 0 56 57" fill="none" xmlns="http://www.w3.org/2000/svg">
<g clip-path="url(#clip0_2_1069)">
<path d="M19.9998 14.19L41.5998 15.79L46.9998 16.19C49.3998 16.39 51.4998 14.89 51.4998 12.99V9.98999C51.4998 8.08999 49.3998 6.58999 46.9998 6.78999L41.6998 7.18999L19.9998 8.78999C19.2998 8.88999 18.6998 8.48999 18.2998 7.88999C16.9998 5.48999 14.4998 3.98999 11.5998 3.98999C8.5998 3.98999 5.9998 5.68999 4.7998 8.38999H10.7998C12.2998 8.38999 13.6998 9.38999 13.9998 10.89C14.3998 12.89 12.8998 14.69 10.8998 14.69H4.7998C5.9998 17.29 8.5998 19.09 11.6998 19.09C14.5998 19.09 17.0998 17.49 18.3998 15.09C18.6998 14.49 19.2998 14.19 19.9998 14.19Z" stroke="#0384C6" stroke-width="1.5" stroke-miterlimit="10" stroke-linecap="round" stroke-linejoin="round"/>
<path d="M47.0002 16.29C49.4002 16.49 51.5002 14.99 51.5002 13.09V10.09C51.5002 8.18999 49.4002 6.68999 47.0002 6.88999L41.7002 7.18999V15.89L47.0002 16.29Z" fill="#38BDF9" stroke="#0384C6" stroke-width="1.5" stroke-miterlimit="10" stroke-linecap="round" stroke-linejoin="round"/>
<path d="M50.2002 34.29H48.2002C49.6002 35.69 49.2002 41.79 49.2002 41.79V51.29C49.2002 52.29 48.4002 53.19 47.3002 53.19H44.2002C43.2002 53.19 42.3002 52.39 42.3002 51.29V48.29H13.9002V51.29C13.9002 52.29 13.1002 53.19 12.0002 53.19H8.9002C7.9002 53.19 7.0002 52.39 7.0002 51.29V41.79C7.0002 41.79 6.6002 35.59 8.0002 34.29H6.0002C5.3002 34.29 4.7002 33.69 4.7002 32.99V31.49C4.7002 30.79 5.3002 30.19 6.0002 30.19H9.60019L14.6002 23.99C15.9002 22.39 17.8002 21.49 19.9002 21.49H36.3002C38.3002 21.49 40.3002 22.39 41.6002 23.99L46.6002 30.19H50.2002C50.9002 30.19 51.5002 30.79 51.5002 31.49V32.99C51.5002 33.69 50.9002 34.29 50.2002 34.29Z" stroke="#0384C6" stroke-width="1.5" stroke-miterlimit="10" stroke-linecap="round" stroke-linejoin="round"/>
<path d="M37.7998 38.89L43.7998 38.59C44.8998 38.49 45.6998 37.59 45.6998 36.59V35.59L37.7998 35.99V38.89Z" fill="#38BDF9" stroke="#0384C6" stroke-width="1.5" stroke-miterlimit="10" stroke-linecap="round" stroke-linejoin="round"/>
<path d="M18.3004 38.89L12.3004 38.59C11.2004 38.49 10.4004 37.59 10.4004 36.59V35.59L18.3004 35.99V38.89Z" fill="#38BDF9" stroke="#0384C6" stroke-width="1.5" stroke-miterlimit="10" stroke-linecap="round" stroke-linejoin="round"/>
<path d="M13.2002 30.69L17.2002 25.19C17.7002 24.49 18.5002 24.09 19.3002 24.09H36.9002C37.7002 24.09 38.5002 24.49 39.0002 25.19L43.0002 30.69C33.1002 31.29 23.2002 31.29 13.2002 30.69Z" fill="#38BDF9" stroke="#0384C6" stroke-width="1.5" stroke-miterlimit="10" stroke-linecap="round" stroke-linejoin="round"/>
<path d="M24.7002 42.59H31.6002" stroke="#0384C6" stroke-width="1.5" stroke-miterlimit="10" stroke-linecap="round" stroke-linejoin="round"/>
</g>
<defs>
<clipPath id="clip0_2_1069">
<rect width="56" height="56" fill="white" transform="translate(0 0.190002)"/>
</clipPath>
</defs>
</svg>
