<svg width="56" height="57" viewBox="0 0 56 57" fill="none" xmlns="http://www.w3.org/2000/svg">
<g clip-path="url(#clip0_2_1049)">
<g clip-path="url(#clip1_2_1049)">
<path d="M39.6998 9.78999C39.5998 9.78999 39.4998 9.88999 39.3998 9.88999C38.3998 7.78999 36.2998 6.38999 33.8998 6.38999C32.1998 6.38999 30.6998 7.08999 29.5998 8.08999C28.3998 5.68999 25.9998 3.98999 23.0998 3.98999C20.1998 3.98999 17.6998 5.68999 16.5998 8.18999C16.0998 7.98999 15.4998 7.88999 14.9998 7.88999C12.1998 7.88999 9.8998 10.09 9.6998 12.79V15.29C6.9998 15.29 4.7998 17.49 4.7998 20.19C4.7998 22.69 6.6998 24.79 9.0998 25.09C10.1998 30.09 14.6998 33.79 19.9998 33.79C20.5998 33.79 24.7998 34.39 27.3998 31.69C28.4998 32.99 30.0998 33.69 31.9998 33.69C34.9998 33.69 37.3998 31.59 37.9998 28.79C38.4998 29.29 39.0998 29.69 39.7998 29.89V9.78999H39.6998Z" stroke="#069669" stroke-width="1.5" stroke-miterlimit="10" stroke-linecap="round" stroke-linejoin="round"/>
<path d="M13.3999 8.09C13.3999 8.09 18.1999 6.49 20.7999 11.99" stroke="#069669" stroke-width="1.5" stroke-miterlimit="10" stroke-linecap="round" stroke-linejoin="round"/>
<path d="M15 23.59L20.1 28.69C21.1 29.69 21.7 31.09 21.7 32.59V41.29H28.9V32.59C28.9 31.19 29.5 29.79 30.5 28.69L35.6 23.59L32.7 20.59L28.5 24.79C28.1 25.19 27.5 24.89 27.6 24.39L28 18.19H22.7L23.1 24.39C23.1 24.89 22.5 25.19 22.2 24.79L18 20.59L15 23.59Z" fill="#34D399" stroke="#069669" stroke-width="1.5" stroke-miterlimit="10" stroke-linecap="round" stroke-linejoin="round"/>
<path d="M40.1996 13.49C40.1996 13.49 40.8996 10.29 44.5996 4.29004C44.5996 4.29004 41.8996 6.59004 40.1996 4.29004C40.1996 4.29004 38.1996 5.69004 36.0996 4.49004L35.5996 4.29004C39.2996 10.29 39.9996 13.49 39.9996 13.49" fill="#34D399"/>
<path d="M40.1996 13.49C40.1996 13.49 40.8996 10.29 44.5996 4.29004C44.5996 4.29004 41.8996 6.59004 40.1996 4.29004C40.1996 4.29004 38.1996 5.69004 36.0996 4.49004L35.5996 4.29004C39.2996 10.29 39.9996 13.49 39.9996 13.49" stroke="#069669" stroke-width="1.5" stroke-miterlimit="10" stroke-linecap="round" stroke-linejoin="round"/>
<path d="M32.7998 17.69C32.7998 22.09 37.5998 47.89 37.5998 47.89V47.99C38.5998 50.09 41.4998 49.99 42.4998 47.89C42.4998 47.89 47.2998 22.09 47.2998 17.69C47.2998 16.19 46.6998 14.89 45.9998 13.99C44.5998 12.29 42.4998 11.39 40.2998 11.39H39.7998C37.5998 11.39 35.4998 12.29 34.0998 13.99C33.3998 14.89 32.7998 16.09 32.7998 17.69Z" fill="white" stroke="#069669" stroke-width="1.5" stroke-miterlimit="10" stroke-linecap="round" stroke-linejoin="round"/>
<path d="M46.8999 21.29H40.8999" stroke="#069669" stroke-width="1.5" stroke-miterlimit="10" stroke-linecap="round" stroke-linejoin="round"/>
<path d="M45.6999 29.69H40.8999" stroke="#069669" stroke-width="1.5" stroke-miterlimit="10" stroke-linecap="round" stroke-linejoin="round"/>
<path d="M50.0998 37.29H6.5998C5.5998 37.29 4.7998 36.49 4.7998 35.49V34.49C4.7998 33.49 5.5998 32.69 6.5998 32.69H50.1998C51.1998 32.69 51.9998 33.49 51.9998 34.49V35.49C51.8998 36.49 51.0998 37.29 50.0998 37.29Z" fill="white" stroke="#069669" stroke-width="1.5" stroke-miterlimit="10" stroke-linecap="round" stroke-linejoin="round"/>
<path d="M48.3998 37.29L45.2998 49.69C44.8998 51.39 42.6998 52.59 40.1998 52.59H16.4998C13.9998 52.59 11.7998 51.39 11.3998 49.69L8.2998 37.29H48.3998Z" fill="white" stroke="#069669" stroke-width="1.5" stroke-miterlimit="10" stroke-linecap="round" stroke-linejoin="round"/>
<path d="M16.1997 41.89L17.5997 47.79" stroke="#069669" stroke-width="1.5" stroke-miterlimit="10" stroke-linecap="round" stroke-linejoin="round"/>
<path d="M40.0997 41.89L38.6997 47.79" stroke="#069669" stroke-width="1.5" stroke-miterlimit="10" stroke-linecap="round" stroke-linejoin="round"/>
<path d="M28.2998 41.89V47.79" stroke="#069669" stroke-width="1.5" stroke-miterlimit="10" stroke-linecap="round" stroke-linejoin="round"/>
</g>
</g>
<defs>
<clipPath id="clip0_2_1049">
<rect width="56" height="56" fill="white" transform="translate(0 0.190002)"/>
</clipPath>
<clipPath id="clip1_2_1049">
<rect width="56" height="56" fill="white" transform="translate(0 0.190002)"/>
</clipPath>
</defs>
</svg>
